<?xml version="1.0" encoding="UTF-8"?>
<svg xmlns="http://www.w3.org/2000/svg" viewBox="0 0 64 64" width="64px" height="64px">
<g id="surface1822460">
<path style=" stroke:none;fill-rule:nonzero;fill:rgb(98.823529%,63.921571%,6.666667%);fill-opacity:1;" d="M 32 3 C 16 3 3 16 3 32 C 3 48 16 61 32 61 C 48 61 61 48 61 32 C 61 16 48 3 32 3 Z M 32 6 C 46.351562 6 58 17.648438 58 32 C 58 46.351562 46.351562 58 32 58 C 17.648438 58 6 46.351562 6 32 C 6 17.648438 17.648438 6 32 6 Z M 32 15 C 29.515625 15 27.5 17.015625 27.5 19.5 C 27.5 21.984375 29.515625 24 32 24 C 34.484375 24 36.5 21.984375 36.5 19.5 C 36.5 17.015625 34.484375 15 32 15 Z M 32 29.5 C 29.5 29.5 27.5 31.5 27.5 34 L 27.5 46 C 27.5 48.5 29.5 50.5 32 50.5 C 34.5 50.5 36.5 48.5 36.5 46 L 36.5 34 C 36.5 31.5 34.5 29.5 32 29.5 Z M 32 29.5 "/>
</g>
</svg>
